<mxfile host="app.diagrams.net" agent="Mozilla/5.0 (Windows NT 10.0; Win64; x64) AppleWebKit/537.36 (KHTML, like Gecko) Chrome/128.0.0.0 Safari/537.36" version="26.2.9">
  <diagram name="1 oldal" id="hzRNwiLkb2KgEtersV-B">
    <mxGraphModel dx="1433" dy="896" grid="1" gridSize="10" guides="1" tooltips="1" connect="1" arrows="1" fold="1" page="1" pageScale="1" pageWidth="827" pageHeight="1169" math="0" shadow="0">
      <root>
        <mxCell id="0" />
        <mxCell id="1" parent="0" />
        <mxCell id="fxlXDi8wOBBIX7w-NKC7-10" value="&lt;font style=&quot;font-size: 18px;&quot;&gt;Látogató&lt;/font&gt;" style="shape=umlActor;verticalLabelPosition=bottom;verticalAlign=top;html=1;outlineConnect=0;fillColor=#d5e8d4;strokeColor=#82b366;" vertex="1" parent="1">
          <mxGeometry x="64" y="570" width="100" height="200" as="geometry" />
        </mxCell>
        <mxCell id="fxlXDi8wOBBIX7w-NKC7-11" value="&lt;font style=&quot;font-size: 18px;&quot;&gt;Adminisztrátor&lt;/font&gt;" style="shape=umlActor;verticalLabelPosition=bottom;verticalAlign=top;html=1;outlineConnect=0;fillColor=#f8cecc;strokeColor=#b85450;" vertex="1" parent="1">
          <mxGeometry x="664" y="570" width="100" height="200" as="geometry" />
        </mxCell>
        <mxCell id="fxlXDi8wOBBIX7w-NKC7-3" value="" style="rounded=0;whiteSpace=wrap;html=1;" vertex="1" parent="1">
          <mxGeometry x="213" y="250" width="360" height="880" as="geometry" />
        </mxCell>
        <mxCell id="fxlXDi8wOBBIX7w-NKC7-4" value="Felhasználók kezelése" style="text;html=1;align=center;verticalAlign=middle;whiteSpace=wrap;rounded=0;fontSize=18;" vertex="1" parent="1">
          <mxGeometry x="295.75" y="260" width="189.5" height="30" as="geometry" />
        </mxCell>
        <mxCell id="fxlXDi8wOBBIX7w-NKC7-5" value="UC_F_List&amp;nbsp;&lt;br&gt;Felhsaználók listázása" style="ellipse;whiteSpace=wrap;html=1;fillColor=#fff2cc;strokeColor=#d6b656;" vertex="1" parent="1">
          <mxGeometry x="305.5" y="330" width="170" height="100" as="geometry" />
        </mxCell>
        <mxCell id="fxlXDi8wOBBIX7w-NKC7-6" value="UC_F_Create&lt;br&gt;Felhasználó létrehozása" style="ellipse;whiteSpace=wrap;html=1;fillColor=#fff2cc;strokeColor=#d6b656;" vertex="1" parent="1">
          <mxGeometry x="308" y="585" width="170" height="100" as="geometry" />
        </mxCell>
        <mxCell id="fxlXDi8wOBBIX7w-NKC7-7" value="UC_F_Read&lt;br&gt;Felhasználó megtekintése" style="ellipse;whiteSpace=wrap;html=1;fillColor=#fff2cc;strokeColor=#d6b656;" vertex="1" parent="1">
          <mxGeometry x="308" y="470" width="170" height="100" as="geometry" />
        </mxCell>
        <mxCell id="fxlXDi8wOBBIX7w-NKC7-8" value="UC_F_Update&lt;br&gt;Felhasználó módosítása" style="ellipse;whiteSpace=wrap;html=1;fillColor=#fff2cc;strokeColor=#d6b656;" vertex="1" parent="1">
          <mxGeometry x="303" y="840" width="170" height="100" as="geometry" />
        </mxCell>
        <mxCell id="fxlXDi8wOBBIX7w-NKC7-9" value="UC_F_Delete&lt;br&gt;Felhasználó törlése" style="ellipse;whiteSpace=wrap;html=1;fillColor=#fff2cc;strokeColor=#d6b656;" vertex="1" parent="1">
          <mxGeometry x="303" y="980" width="170" height="100" as="geometry" />
        </mxCell>
        <mxCell id="fxlXDi8wOBBIX7w-NKC7-19" value="UC_F_Login&lt;br&gt;Adminisztrátori bejelentkezés" style="ellipse;whiteSpace=wrap;html=1;fillColor=#fff2cc;strokeColor=#d6b656;" vertex="1" parent="1">
          <mxGeometry x="308" y="720" width="170" height="100" as="geometry" />
        </mxCell>
        <mxCell id="fxlXDi8wOBBIX7w-NKC7-20" value="" style="endArrow=none;html=1;rounded=0;exitX=1;exitY=0.5;exitDx=0;exitDy=0;entryX=0;entryY=0.3333333333333333;entryDx=0;entryDy=0;entryPerimeter=0;" edge="1" parent="1" source="fxlXDi8wOBBIX7w-NKC7-5" target="fxlXDi8wOBBIX7w-NKC7-11">
          <mxGeometry width="50" height="50" relative="1" as="geometry">
            <mxPoint x="614" y="685" as="sourcePoint" />
            <mxPoint x="664" y="635" as="targetPoint" />
          </mxGeometry>
        </mxCell>
        <mxCell id="fxlXDi8wOBBIX7w-NKC7-21" value="" style="endArrow=none;html=1;rounded=0;exitX=1;exitY=0.5;exitDx=0;exitDy=0;entryX=0;entryY=0.3333333333333333;entryDx=0;entryDy=0;entryPerimeter=0;" edge="1" parent="1" source="fxlXDi8wOBBIX7w-NKC7-7" target="fxlXDi8wOBBIX7w-NKC7-11">
          <mxGeometry width="50" height="50" relative="1" as="geometry">
            <mxPoint x="473" y="450" as="sourcePoint" />
            <mxPoint x="661" y="630" as="targetPoint" />
          </mxGeometry>
        </mxCell>
        <mxCell id="fxlXDi8wOBBIX7w-NKC7-22" value="" style="endArrow=none;html=1;rounded=0;exitX=1;exitY=0.5;exitDx=0;exitDy=0;entryX=0;entryY=0.3333333333333333;entryDx=0;entryDy=0;entryPerimeter=0;" edge="1" parent="1" source="fxlXDi8wOBBIX7w-NKC7-6" target="fxlXDi8wOBBIX7w-NKC7-11">
          <mxGeometry width="50" height="50" relative="1" as="geometry">
            <mxPoint x="478" y="568" as="sourcePoint" />
            <mxPoint x="664" y="685" as="targetPoint" />
          </mxGeometry>
        </mxCell>
        <mxCell id="fxlXDi8wOBBIX7w-NKC7-23" value="" style="endArrow=none;html=1;rounded=0;exitX=1;exitY=0.5;exitDx=0;exitDy=0;entryX=0;entryY=0.3333333333333333;entryDx=0;entryDy=0;entryPerimeter=0;" edge="1" parent="1" source="fxlXDi8wOBBIX7w-NKC7-19" target="fxlXDi8wOBBIX7w-NKC7-11">
          <mxGeometry width="50" height="50" relative="1" as="geometry">
            <mxPoint x="488" y="645" as="sourcePoint" />
            <mxPoint x="674" y="647" as="targetPoint" />
          </mxGeometry>
        </mxCell>
        <mxCell id="fxlXDi8wOBBIX7w-NKC7-24" value="" style="endArrow=none;html=1;rounded=0;exitX=1;exitY=0.5;exitDx=0;exitDy=0;entryX=0;entryY=0.3333333333333333;entryDx=0;entryDy=0;entryPerimeter=0;" edge="1" parent="1" source="fxlXDi8wOBBIX7w-NKC7-8" target="fxlXDi8wOBBIX7w-NKC7-11">
          <mxGeometry width="50" height="50" relative="1" as="geometry">
            <mxPoint x="488" y="780" as="sourcePoint" />
            <mxPoint x="674" y="647" as="targetPoint" />
          </mxGeometry>
        </mxCell>
        <mxCell id="fxlXDi8wOBBIX7w-NKC7-25" value="" style="endArrow=none;html=1;rounded=0;exitX=1;exitY=0.5;exitDx=0;exitDy=0;entryX=0;entryY=0.3333333333333333;entryDx=0;entryDy=0;entryPerimeter=0;" edge="1" parent="1" source="fxlXDi8wOBBIX7w-NKC7-9" target="fxlXDi8wOBBIX7w-NKC7-11">
          <mxGeometry width="50" height="50" relative="1" as="geometry">
            <mxPoint x="483" y="938" as="sourcePoint" />
            <mxPoint x="674" y="685" as="targetPoint" />
          </mxGeometry>
        </mxCell>
        <mxCell id="fxlXDi8wOBBIX7w-NKC7-26" value="" style="endArrow=none;html=1;rounded=0;exitX=1;exitY=0.3333333333333333;exitDx=0;exitDy=0;entryX=0;entryY=0.5;entryDx=0;entryDy=0;exitPerimeter=0;" edge="1" parent="1" source="fxlXDi8wOBBIX7w-NKC7-10" target="fxlXDi8wOBBIX7w-NKC7-19">
          <mxGeometry width="50" height="50" relative="1" as="geometry">
            <mxPoint x="90" y="1078" as="sourcePoint" />
            <mxPoint x="281" y="685" as="targetPoint" />
          </mxGeometry>
        </mxCell>
      </root>
    </mxGraphModel>
  </diagram>
</mxfile>
